<svg width="35" height="36" viewBox="0 0 35 36" fill="none" xmlns="http://www.w3.org/2000/svg">
<g clip-path="url(#clip0_10_356)">
<path opacity="0.5" d="M35.1609 18.2454C35.1609 27.9103 27.3258 35.7454 17.6609 35.7454C7.9959 35.7454 0.160889 27.9103 0.160889 18.2454C0.160889 8.58037 7.9959 0.745361 17.6609 0.745361C27.3258 0.745361 35.1609 8.58037 35.1609 18.2454Z" fill="#BFCFE7"/>
<path d="M18.9734 12.9954C18.9734 12.2705 18.3857 11.6829 17.6609 11.6829C16.936 11.6829 16.3484 12.2705 16.3484 12.9954V16.9329H12.4109C11.686 16.9329 11.0984 17.5205 11.0984 18.2454C11.0984 18.9702 11.686 19.5579 12.4109 19.5579H16.3484V23.4954C16.3484 24.2202 16.936 24.8079 17.6609 24.8079C18.3857 24.8079 18.9734 24.2202 18.9734 23.4954V19.5579H22.9109C23.6357 19.5579 24.2234 18.9702 24.2234 18.2454C24.2234 17.5205 23.6357 16.9329 22.9109 16.9329H18.9734V12.9954Z" fill="#525CEB"/>
</g>
<defs>
<clipPath id="clip0_10_356">
<rect width="35" height="35" fill="white" transform="translate(0 0.5)"/>
</clipPath>
</defs>
</svg>
