<svg width="60" height="53" viewBox="0 0 60 53" fill="none" xmlns="http://www.w3.org/2000/svg">
<path d="M29.0663 51.5625C24.7676 49.2192 18.4313 44.3078 13.5668 39.5486C6.06298 32.2072 1.64291 25.347 0.28682 18.9373C-0.0618613 17.2892 -0.100056 13.9602 0.2131 12.5112C0.803836 9.77783 2.019 7.38907 4.0365 4.99508C5.50967 3.24697 7.82988 1.79394 10.0191 1.24829C11.4233 0.898361 14.2226 0.871878 15.7096 1.19431C20.2598 2.1815 24.9047 5.13246 28.9402 9.59976C29.5968 10.3267 30.1794 10.8933 30.235 10.859C30.2905 10.8247 30.6489 10.3855 31.0313 9.88302C34.2749 5.62201 39.03 2.51444 43.9957 1.41038C45.2503 1.1315 48.916 1.13675 50.0329 1.41913C52.9647 2.1602 55.1455 3.71332 57.0759 6.43507C58.5756 8.54945 59.4416 10.6148 59.8445 13.0376C60.1102 14.6351 60.0273 17.3934 59.6621 19.1089C58.4762 24.6794 54.654 30.9917 48.6372 37.3163C44.062 42.1255 38.0561 47.1281 32.986 50.3527C31.9338 51.0219 30.0985 52.0387 29.9561 52.0314C29.9383 52.0314 29.5379 51.8195 29.0663 51.5625ZM36.2383 25.754C41.1851 19.4011 43.1738 16.7627 43.1738 16.5525C43.1738 16.3159 42.9016 16.0467 41.7899 15.184C40.3974 14.1034 40.0481 13.9531 39.7115 14.2898C39.6117 14.3895 37.0835 17.6225 34.0933 21.4743C31.1031 25.326 28.6209 28.4774 28.5775 28.4774C28.534 28.4774 27.0259 26.8874 25.2262 24.944C23.3061 22.8706 21.8678 21.4107 21.7453 21.4107C21.5399 21.4107 19.0742 23.5973 18.8719 23.9587C18.8139 24.0626 18.8127 24.236 18.869 24.3539C18.9245 24.4695 21.1951 26.9589 23.9146 29.8859L28.8593 35.2077L29.0809 34.9343C29.2028 34.7838 32.4238 30.6528 36.2383 25.754Z" fill="#525CEB"/>
</svg>
