<svg width="18" height="35" viewBox="0 0 18 35" fill="none" xmlns="http://www.w3.org/2000/svg">
<path d="M18 23.3308V27.7058C18 30.1121 15.975 32.0808 13.5 32.0808H4.5C2.025 32.0808 0 30.1121 0 27.7058V21.8579C0 21.0558 0.675 20.3996 1.515 20.3996L5.835 20.4142C6.87 20.4142 7.89 20.6329 8.835 21.0704C9.87 21.5371 10.965 21.8725 12.12 21.8725H16.5C17.325 21.8725 18 22.5288 18 23.3308Z" fill="#525CEB"/>
<path d="M17.115 13.7229L13.935 10.6312C13.65 10.3542 13.5 9.98958 13.5 9.61041V7.16041C14.37 6.86875 15 6.05208 15 5.10416C15 3.89375 13.995 2.91666 12.75 2.91666H5.25C4.005 2.91666 3 3.89375 3 5.10416C3 6.05208 3.63 6.86875 4.5 7.16041V9.61041C4.5 9.98958 4.35 10.3542 4.065 10.6312L0.885 13.7229C0.405 14.1896 0 15.1375 0 15.7937V16.7417C0 17.5437 0.66 18.2 1.485 18.2L5.85 18.2292C7.32 18.2292 8.805 18.5792 10.125 19.25C10.755 19.5708 11.475 19.6875 12.18 19.6875H16.5C17.325 19.6875 18 19.0312 18 18.2292V15.7937C18 15.1375 17.595 14.1896 17.115 13.7229Z" fill="#BFCFE7"/>
</svg>
