<svg width="82" height="48" viewBox="0 0 82 48" fill="none" xmlns="http://www.w3.org/2000/svg">
<g clip-path="url(#clip0_10_201)">
<path d="M60.0252 37.8145C63.7094 37.8145 68.7091 36.3829 72.7617 34.1666C78.1065 31.2443 81.0497 27.4313 81.0496 23.4294C81.0491 14.6464 67.244 9.04438 60.0252 9.04421C53.2362 9.0443 47.5343 13.7736 46.0311 20.1097L4.6976 20.1097C2.86415 20.1097 1.37798 21.5959 1.37798 23.4294C1.37781 25.2627 2.86415 26.749 4.69744 26.7492L46.0265 26.7493C46.6316 29.3228 47.9374 31.6855 49.8535 33.6015C52.5704 36.3185 56.183 37.815 60.0252 37.8145Z" fill="#BFCFE7"/>
<path d="M72.2407 32.1642C77.5852 29.242 80.5287 25.4289 80.5286 21.4269H0.856927C0.856761 23.2602 2.3431 24.7466 4.17638 24.7467L45.5054 24.7469C46.1106 27.3204 47.4164 29.683 49.3324 31.5991C52.0492 34.3159 55.6619 35.8126 59.5043 35.8122C63.1884 35.8122 68.1881 34.3804 72.2407 32.1642Z" fill="#525CEB"/>
</g>
<defs>
<clipPath id="clip0_10_201">
<rect width="82" height="48" fill="white"/>
</clipPath>
</defs>
</svg>
