<svg width="1279" height="123" viewBox="0 0 1279 123" fill="none" xmlns="http://www.w3.org/2000/svg">
<path fill-rule="evenodd" clip-rule="evenodd" d="M0 20.5L19.2 23.9167C38.4 27.3333 77.8667 34.1667 116.267 44.4167C154.667 54.6667 194.133 68.3333 232.533 64.9167C272 61.5 310.4 41 348.8 27.3333C388.267 13.6667 426.667 6.83333 465.067 17.0833C504.533 27.3333 542.933 54.6667 581.333 71.75C620.8 88.8333 659.2 95.6667 698.667 71.75C737.067 47.8333 780.533 25.7828 820 12.1162C858.4 -1.5505 903.033 5.44307 942.5 15.6931C980.9 25.9431 1008 6.83333 1047.47 20.5C1085.87 34.1667 1125.33 68.3333 1163.73 68.3333C1202.13 68.3333 1241.6 34.1667 1260.8 17.0833L1280 0V123H1260.8C1241.6 123 1202.13 123 1163.73 123C1125.33 123 1085.87 123 1047.47 123C1008 123 969.6 123 931.2 123C891.733 123 853.333 123 814.933 123C775.467 123 737.067 123 698.667 123C659.2 123 620.8 123 581.333 123C542.933 123 504.533 123 465.067 123C426.667 123 388.267 123 348.8 123C310.4 123 272 123 232.533 123C194.133 123 154.667 123 116.267 123C77.8667 123 38.4 123 19.2 123H0V20.5Z" fill="#BFCFE7"/>
</svg>
